#!OML:ASF H:\Terrain\Patient Classification 1\Walking\liu\liu.ASF
:FULLY-SPECIFIED
:DEGREES
143
root 8.96344 16.5995 -2.86556 4.96001 5.50018 -2.57892
lowerback -5.36578 -3.79103 -1.05102
upperback -1.28937 -5.08172 3.95292
thorax 2.12404 -2.55681 4.29383
lowerneck -23.2683 -2.20947 -11.4924
upperneck 26.5279 -2.51549 11.9326
head 13.064 -0.662602 6.24232
rclavicle -8.29926e-014 2.3059e-014
rhumerus -45.9502 -14.8334 -64.612
rradius 14.1234
rwrist 13.3792
rhand -26.4945 -22.144
rfingers 7.12502
rthumb 0.0681119 -52.1237
lclavicle -8.29926e-014 2.3059e-014
lhumerus -16.8973 -17.5592 90.0256
lradius 44.6938
lwrist 14.2846
lhand -19.7386 -28.9692
lfingers 7.12502
lthumb 6.59216 0.908175
rfemur -30.2035 -4.34258 28.6196
rtibia 34.6038
rfoot -7.364 6.67755
rtoes -9.75654
lfemur 5.62275 10.5371 -12.4283
ltibia 45.3733
lfoot 10.9904 7.4872
ltoes -12.908
144
root 8.94798 16.6372 -2.66391 4.62835 5.63261 -3.03995
lowerback -5.05606 -3.6895 -0.701668
upperback -1.19781 -4.96631 4.06273
thorax 2.01623 -2.49754 4.23887
lowerneck -22.3814 -2.15516 -12.0041
upperneck 25.549 -2.53627 12.798
head 12.5104 -0.616774 6.60321
rclavicle 4.19995e-014 -3.49861e-014
rhumerus -45.5513 -15.3403 -64.5724
rradius 14.0499
rwrist 13.0798
rhand -25.4151 -19.8923
rfingers 7.12502
rthumb 1.11067 -49.8692
lclavicle 4.19995e-014 -3.49861e-014
lhumerus -17.5021 -17.8476 90.5652
lradius 43.6252
lwrist 13.6828
lhand -20.0594 -28.9017
lfingers 7.12502
lthumb 6.28249 0.985172
rfemur -28.5493 -4.65218 29.1824
rtibia 33.6603
rfoot -7.74234 6.88931
rtoes -9.61607
lfemur 3.78934 10.6721 -11.8775
ltibia 48.9976
lfoot 9.09783 9.13776
ltoes -14.1381
145
root 8.94348 16.6807 -2.45116 4.41318 5.8402 -3.48584
lowerback -4.84861 -3.60777 -0.240078
upperback -1.22111 -4.87728 4.15597
thorax 1.83898 -2.44871 4.0987
lowerneck -22.6487 -2.36471 -11.6268
upperneck 26.0399 -2.79452 12.1605
head 12.7875 -0.776793 6.26904
rclavicle -6.31328e-014 2.38542e-014
rhumerus -45.3497 -15.3297 -64.718
rradius 14.0314
rwrist 12.9316
rhand -25.8843 -20.835
rfingers 7.12502
rthumb 0.657508 -50.8137
lclavicle -6.31328e-014 2.38542e-014
lhumerus -18.2151 -18.0627 91.086
lradius 42.5091
lwrist 13.18
lhand -19.2123 -28.2071
lfingers 7.12502
lthumb 7.10019 1.65382
rfemur -26.9838 -5.13153 29.6826
rtibia 32.7167
rfoot -8.11958 7.28056
rtoes -9.28001
lfemur 1.87851 10.6788 -11.5021
ltibia 52.2625
lfoot 6.75141 10.6139
ltoes -15.6514
146
root 8.93646 16.7247 -2.23907 4.49608 6.03068 -3.94455
lowerback -4.99355 -3.51521 0.167313
upperback -1.29663 -4.77706 4.32534
thorax 1.8159 -2.39576 4.04764
lowerneck -22.5086 -2.53426 -11.8855
upperneck 26.0161 -3.0104 12.3342
head 12.7908 -0.879638 6.34632
rclavicle 1.9133e-015 -3.65764e-014
rhumerus -45.0105 -14.5126 -65.4248
rradius 14.3022
rwrist 12.3003
rhand -26.3194 -21.8919
rfingers 7.12502
rthumb 0.237232 -51.8716
lclavicle 1.9133e-015 -3.65764e-014
lhumerus -19.0156 -17.9375 91.6963
lradius 41.4981
lwrist 12.338
lhand -18.1153 -27.7604
lfingers 7.12502
lthumb 8.15905 2.06208
rfemur -25.8089 -5.31409 30.2025
rtibia 31.7856
rfoot -8.52445 7.36548
rtoes -9.2486
lfemur -0.390058 10.6964 -11.2561
ltibia 55.2095
lfoot 6.15023 11.5479
ltoes -12.3176
147
root 8.92498 16.7701 -2.0439 4.62212 6.10254 -3.96437
lowerback -5.27966 -3.43353 0.031517
upperback -1.1203 -4.67619 4.36082
thorax 2.16427 -2.35011 4.14434
lowerneck -22.5003 -2.56725 -11.8244
upperneck 25.6098 -3.09171 12.4697
head 12.6406 -0.886303 6.35156
rclavicle -1.48716e-014 4.13472e-014
rhumerus -44.1447 -14.7939 -65.8488
rradius 14.4993
rwrist 12.4777
rhand -26.942 -22.3868
rfingers 7.12502
rthumb -0.364113 -52.3662
lclavicle -1.48716e-014 4.13472e-014
lhumerus -19.3403 -17.4378 92.0537
lradius 40.3625
lwrist 11.3236
lhand -17.3129 -27.751
lfingers 7.12502
lthumb 8.9334 2.03989
rfemur -24.7177 -5.41863 30.2721
rtibia 30.8821
rfoot -8.86903 7.41304
rtoes -8.88596
lfemur -2.70194 10.6588 -11.5889
ltibia 57.8181
lfoot 5.72798 12.5648
ltoes -8.24859
148
root 8.9131 16.8149 -1.85832 4.68922 6.0798 -3.72823
lowerback -5.30402 -3.30526 -0.311157
upperback -1.03456 -4.48772 4.25277
thorax 2.26983 -2.25975 4.235
lowerneck -22.7517 -2.66517 -11.4507
upperneck 25.6158 -3.301 12.318
head 12.7179 -0.954655 6.19275
rclavicle 2.61153e-014 -1.35174e-014
rhumerus -43.3672 -14.435 -66.8665
rradius 14.8337
rwrist 11.6915
rhand -26.4274 -23.1351
rfingers 7.12502
rthumb 0.132941 -53.1148
lclavicle 2.61153e-014 -1.35174e-014
lhumerus -19.5968 -17.5293 92.3983
lradius 38.8461
lwrist 10.6197
lhand -17.0796 -27.4112
lfingers 7.12502
lthumb 9.1585 2.36988
rfemur -23.5813 -5.41573 30.0254
rtibia 30.0652
rfoot -9.10192 7.51332
rtoes -7.94108
lfemur -4.83433 10.4221 -12.2908
ltibia 60.0212
lfoot 3.40706 14.0199
ltoes -8.95962
149
root 8.90249 16.856 -1.67403 4.91366 5.94489 -3.37227
lowerback -5.37656 -3.04369 -0.682073
upperback -1.10763 -4.11239 4.08575
thorax 2.21892 -2.0727 4.29846
lowerneck -22.7326 -2.97205 -11.5786
upperneck 25.651 -3.74598 12.4577
head 12.8042 -1.14786 6.19913
rclavicle 2.76683e-014 2.22639e-014
rhumerus -42.8125 -12.4708 -68.8941
rradius 15.6154
rwrist 9.14327
rhand -23.5916 -25.7511
rfingers 7.12502
rthumb 2.87173 -55.7115
lclavicle 2.76683e-014 2.22639e-014
lhumerus -19.9429 -18.1716 92.9405
lradius 37.1137
lwrist 9.93314
lhand -16.5888 -26.6946
lfingers 7.12502
lthumb 9.63208 3.0652
rfemur -22.649 -5.34347 29.6526
rtibia 29.301
rfoot -9.37939 7.70211
rtoes -7.32873
lfemur -6.98586 10.2763 -13.1805
ltibia 61.849
lfoot 0.256388 15.0267
ltoes -16.0095
150
root 8.89866 16.8946 -1.47841 4.955 5.76846 -2.98933
lowerback -5.40068 -2.87179 -1.17868
upperback -1.06531 -3.85529 4.01118
thorax 2.28245 -1.94906 4.51945
lowerneck -22.5456 -3.10553 -11.9674
upperneck 25.4076 -3.9073 12.8311
head 12.7119 -1.21297 6.3767
rclavicle 9.06955e-015 8.74653e-015
rhumerus -41.9817 -10.5639 -70.7153
rradius 16.195
rwrist 6.67636
rhand -21.8215 -29.6671
rfingers 7.12502
rthumb 4.58115 -59.5976
lclavicle 9.06955e-015 8.74653e-015
lhumerus -20.4051 -17.8494 93.4473
lradius 35.4553
lwrist 8.40631
lhand -16.0436 -26.5478
lfingers 7.12502
lthumb 10.1581 3.18701
rfemur -21.4503 -5.64854 29.251
rtibia 28.4921
rfoot -9.60233 8.24025
rtoes -7.08407
lfemur -8.70792 10.2937 -14.0242
ltibia 63.327
lfoot -1.88897 15.6871
ltoes -20.6842
151
root 8.88857 16.9313 -1.28975 4.77731 5.60691 -2.95259
lowerback -4.95831 -2.73958 -1.462
upperback -1.22115 -3.65893 4.11837
thorax 1.88151 -1.84618 4.83243
lowerneck -22.2223 -3.10718 -12.224
upperneck 25.4789 -3.8959 12.9593
head 12.6812 -1.22668 6.47667
rclavicle 2.77677e-014 -5.56597e-015
rhumerus -41.5239 -9.0814 -71.737
rradius 16.4982
rwrist 5.16757
rhand -23.8187 -29.8179
rfingers 7.12502
rthumb 2.65241 -59.7811
lclavicle 2.77677e-014 -5.56597e-015
lhumerus -21.4629 -16.7949 94.0604
lradius 33.979
lwrist 6.29592
lhand -16.1664 -26.909
lfingers 7.12502
lthumb 10.0396 2.8315
rfemur -20.1097 -5.66529 29.2447
rtibia 27.7175
rfoot -9.72393 8.37175
rtoes -7.28864
lfemur -10.2748 10.3109 -14.3468
ltibia 64.5346
lfoot -2.38893 15.932
ltoes -16.4888
152
root 8.87102 16.9694 -1.11282 4.84987 5.40796 -3.14371
lowerback -4.68979 -2.4483 -1.35068
upperback -1.51421 -3.26512 4.14764
thorax 1.38668 -1.6369 4.8475
lowerneck -21.8963 -3.30363 -12.2439
upperneck 25.8574 -4.18567 12.7648
head 12.8094 -1.39519 6.36959
rclavicle -1.03585e-014 -2.38542e-015
rhumerus -41.519 -6.82586 -73.2375
rradius 17.4012
rwrist 2.94195
rhand -26.5059 -27.4002
rfingers 7.12502
rthumb 0.0571218 -57.3799
lclavicle -1.03585e-014 -2.38542e-015
lhumerus -22.5974 -16.3828 94.6149
lradius 32.6152
lwrist 4.88429
lhand -16.0549 -26.6637
lfingers 7.12502
lthumb 10.1472 3.07164
rfemur -19.1924 -5.07807 29.5442
rtibia 27.0359
rfoot -9.84229 7.87666
rtoes -8.22501
lfemur -12.2889 10.3206 -14.4511
ltibia 65.4808
lfoot -1.45671 15.6333
ltoes -6.88114
